<?xml version="1.0" encoding="UTF-8"?><svg id="a" xmlns="http://www.w3.org/2000/svg" viewBox="0 0 800 425"><defs><style>.b,.c,.d,.e,.f,.g{fill:none;}.h,.i,.j,.k{fill:#037847;}.l,.m{fill:#eb712e;}.n,.o{fill:#f3d5e8;}.p,.q{fill:#f1f0ed;}.r,.s{fill:#fefefd;}.t,.u,.v{fill:#525ea7;}.i,.j,.m,.s,.q,.o,.u,.w,.k,.v,.x,.c,.d,.e,.f,.g{stroke-miterlimit:10;}.i,.j,.m,.s,.q,.o,.u,.w,.x,.e,.f{stroke-width:.25px;}.i,.m,.s,.q,.o,.u,.w,.k,.x,.e,.g{stroke:#1d1d1b;}.j{stroke:#037847;}.w{fill:#1d1d1b;}.v,.d{stroke:#525ea7;}.c,.f{stroke:#000;}.d{stroke-width:7px;}.g{stroke-width:.5px;}</style></defs><rect class="u" y="296.11" width="800" height="128.89"/><rect class="q" width="800" height="296.11"/><path class="h" d="M181.6,248.81s-5.07-.19-5.28-6.12c-.21-5.93,6.65-6.03,6.65-6.03,0,0,9.19-5.65,13.62-.09,4.44,5.56,2.11,6.59,2.11,6.59,0,0-5.7,8.29-12.25,5.75l-4.86-.09Z"/><path class="h" d="M237.85,247.05s-2.25,.58-3.91-4.08,1.31-5.73,1.31-5.73c0,0,2.51-5.8,5.9-2.05s2.65,4.91,2.65,4.91c0,0-.3,7.38-3.82,6.32l-2.14,.63Z"/><polyline class="s" points="661.76 276.61 596.91 273.78 562.65 272.84 548.25 276.61 530.65 274.91 529.9 260.04 530.09 255.15 505.62 254.68 505.62 246.49 536.87 246.19 537.15 258.82 583.17 257.41 582.79 245.55 648.86 245.11 651.12 263.43 659.41 264.37 661.66 271.9 661.76 276.61 661.66 271.9"/><polyline class="m" points="493.19 237.64 493.19 254.68 505.62 254.68 505.62 243.85 501.1 237.64 496.3 235.54 416.89 236.67 419.05 239.1 493.19 237.64 493.19 254.68 479.97 254.78 479.83 249.88 422.61 250.31 422.61 244.61 423.66 244.56 419.05 239.1"/><polygon class="r" points="450.84 226.72 450.84 217.69 457.22 217.4 457.22 226.88 450.84 226.72"/><polygon class="o" points="378.98 251.29 398.29 250.9 398.01 273.38 397.76 273.97 378.56 274.87 378.98 251.29"/><polyline class="r" points="204.14 266.11 204.14 239.64 194.68 241.48 194.68 272.75 204.14 271.81 204.14 266.11"/><path class="l" d="M103.97,292.3v-32.75h7.62v2c0,6.96,0,29.75,0,30.75h-7.62Z"/><path class="l" d="M130.28,316.23l-28.99-8.75c26.51-9.2,47.15-14.12,53.64-24.34l8.41-2.13,23.22-5.84v8.41s-6.9,.87-6.81,3c0,0-2.27,12.56-1.38,14.96s1.13,6.58,6.64,6.44v3.16l-15.75,.94-.77-10.54s.47-4.28-4.38-4.26l-23.67,6.99-3.48,3.72h-2.54s-3.01,2.5-.38,6.64l-3.76,1.6Z"/><polygon class="n" points="188.61 274.65 188.61 245.15 164.11 247.2 164.11 280.83 188.61 274.65"/><rect class="w" x="265.34" y="247.05" width="2.73" height="5.82"/><polygon class="x" points="200.49 260.04 200.49 252.04 198.14 252.04 198.18 260.14 200.49 260.04"/><polyline class="x" points="320.58 235.54 320.77 228.42 323.78 228.42 323.78 233.5 329.43 225.6 331.12 227.29 348.82 227.85 350.51 225.6 356.91 235.95"/><polyline class="x" points="374.98 223.1 406.5 223.96 423.45 244.42 379.3 244.93 374.97 223.19"/><polyline class="x" points="357.85 251.57 357.99 245.31 379.3 244.93 374.97 223.19 357.99 245.31"/><polyline class="e" points="397.76 273.97 401.99 266.11 415.26 268.51 413.01 284.04"/><polyline class="o" points="404.77 250.72 404.81 266.62 401.99 266.11 398.01 273.38 398.29 250.9 404.77 250.72"/><polygon class="x" points="397.29 224 396.82 219.2 395.97 218.35 395.97 216.65 394.94 215.9 394.09 216.75 394.09 218.35 392.27 219.44 392.3 223.81 397.29 224"/><polygon class="r" points="397.76 273.97 342.42 276.7 355.78 280.37 392.27 278.96 412.79 283.69 408.21 279.01 397.76 273.97"/><polyline class="e" points="427.97 305.92 427.69 324.98 445.19 320.75 445.76 308.04 427.97 305.92"/><polygon class="o" points="485.85 270.46 485.85 260.89 529.9 260.04 530.65 274.91 485.85 270.46"/><polygon class="o" points="485.85 260.89 485.85 254.68 530.09 255.15 529.9 260.04 485.85 260.89"/><polygon class="x" points="434.46 236.42 434.46 231.81 429.1 230.57 418.09 229.74 414.98 234.28 416.89 236.67 434.46 236.42"/><rect class="p" x="452.06" y="218.35" width="1.6" height="5.46"/><rect class="p" x="454.51" y="218.35" width="1.05" height="5.46"/><polygon class="e" points="553.34 320.47 542.04 335.71 537.81 311.15 448.02 300.56 448.02 296.75 536.92 307.05 536.35 301.27 546.37 299.24 553.34 320.47"/><polyline class="n" points="596.82 277.55 564.44 278.98 562.65 272.84 596.91 273.78 596.82 277.55"/><line class="e" x1="556.25" y1="270.46" x2="659.41" y2="264.37"/><polygon class="l" points="594.09 316.23 596.91 273.78 610.84 274.77 612.91 296.75 616.3 296.75 616.63 299.28 619.5 321.03 594.09 316.23"/><polygon class="l" points="648.49 331.2 640.02 298.63 616.63 299.28 619.5 321.03 648.49 331.2"/><polygon class="m" points="698.18 280.75 611.24 278.98 610.84 274.77 698.18 277.55 698.18 280.75"/><polygon class="m" points="707.59 281.88 698.18 280.75 698.18 277.55 707.59 278.98 707.59 281.88"/><polygon class="l" points="714.37 321.97 707.59 281.88 698.18 280.75 703.64 321.03 714.37 321.97"/><polygon class="l" points="641.3 303.57 703.64 321.03 698.18 280.75 611.24 278.98 612.91 296.75 616.3 296.75 616.63 299.28 640.02 298.63 641.3 303.57"/><polygon class="o" points="186.56 295.9 367.64 286.58 368.39 291.38 186.56 301.55 186.56 295.9"/><path class="n" d="M186.56,301.55l-1.41,5.93s-3.95,3.11-6.78-5.93c0,0-1.2-1.98,1.38-14.96,0,0-.51,9.69,6.81,9.32"/><path class="n" d="M169.26,312.08l-.77-10.54c.19-4.24-4.38-4.26-4.38-4.26,0,0-23.28,6.54-23.67,6.99l-3.48,3.72"/><line class="b" x1="168.49" y1="301.55" x2="147.59" y2="307.99"/><polygon class="r" points="185.01 311.15 185.15 307.48 186.56 301.55 368.39 291.38 371.41 305.03 373.52 311.85 245.48 321.66 244.72 313.6 242.09 307.99 185.01 311.15"/><polyline class="x" points="298.04 235.43 298.18 230.16 299.41 229.22 299.59 227.57 300.35 227.67 300.35 229.27 300.87 229.17 301.05 227.34 302.18 227.34 302.18 229.17 303.12 229.83 303.17 235.43"/><polyline class="x" points="305.19 235.57 305.29 231.48 306.18 231.48 306.18 230.11 307.41 230.11 307.41 231.01 308.39 229.69 309.19 231.05 310.18 232.09 310.32 235.62"/><path class="n" d="M244.72,313.6l-2.64-5.6-85.08,4.78-8.82,5.18,96.53-4.36,3.11,28.33-125.46,34.45,7.91-60.14,3.76-1.6s-2.64-2.73,.38-6.64h13.18l.59,9.96"/><path class="s" d="M397.19,302.68l30.49-2.12h20.33l89.79,10.59,4.24,24.56-7.62,5.65s-11.58,3.67-22.31-.85l-75.28-17.75,8.36-2.01,.56-12.71-17.79-2.12-40.92,4.24,10.14-7.48Z"/><polygon class="l" points="427.69 324.98 368.39 332.61 339.59 342.21 321.24 346.16 283.69 346.72 247.83 341.92 245.48 321.66 387.05 310.16 427.97 305.92 427.69 324.98"/><path class="x" d="M159.88,242.47l16.66-.64s-6.92-17.77-16.66,.64Z"/><line class="g" x1="168.29" y1="234.07" x2="168.76" y2="228.14"/><polygon class="r" points="162.27 281.25 164.11 280.83 164.11 247.2 174.72 246.31 174.72 241.9 162.01 242.39 162.27 281.25"/><path class="l" d="M162.01,259.48l-50.35,2.11v30.75l33.07-.69s7.8-3.54,10.26-8.47l7.28-1.92-.2-21.74"/><path class="l" d="M194.68,241.48c-4.68-1.53-6.07,3.67-6.07,3.67v29.5l6.07-1.91v-31.27Z"/><polygon class="x" points="260.16 238.4 260.16 231.15 257.52 231.15 257.52 238.4 249.81 238.4 248.11 235.52 246.89 235.52 246.32 236.61 244.35 237.08 244.35 239.64 260.16 239.64 260.16 238.4"/><polygon class="l" points="204.14 239.64 204.14 265.78 260.16 264.54 260.16 239.64 204.14 239.64"/><polyline class="e" points="209.71 264.94 205.19 244.23 208.3 244.18 255.27 243.38"/><line class="e" x1="211.87" y1="244.12" x2="211.87" y2="262.58"/><line class="e" x1="213.67" y1="244.12" x2="214.42" y2="262.58"/><line class="e" x1="217.34" y1="244.12" x2="217.9" y2="261.83"/><line class="e" x1="219.5" y1="243.99" x2="219.97" y2="259.76"/><line class="e" x1="221.57" y1="244.12" x2="222.04" y2="260.14"/><line class="e" x1="223.55" y1="244.12" x2="223.92" y2="259.76"/><line class="e" x1="227.41" y1="243.84" x2="227.41" y2="255.91"/><line class="e" x1="229.48" y1="243.84" x2="229.48" y2="258.82"/><line class="e" x1="231.55" y1="243.99" x2="231.55" y2="258.25"/><line class="e" x1="233.43" y1="243.93" x2="233.43" y2="258.07"/><line class="e" x1="235.59" y1="243.74" x2="235.59" y2="257.88"/><line class="e" x1="237.84" y1="243.74" x2="238.22" y2="255.82"/><line class="e" x1="240.39" y1="243.52" x2="240.39" y2="257.45"/><line class="e" x1="243.5" y1="243.42" x2="243.5" y2="254.21"/><line class="e" x1="247.36" y1="243.52" x2="247.36" y2="256.2"/><polygon class="o" points="265.34 243.85 289.71 244.8 294.23 244.8 294.42 239.64 356.91 235.95 320.58 235.54 263.08 235.54 260.16 244.12 265.34 243.85"/><line class="e" x1="263.08" y1="235.54" x2="265.34" y2="243.85"/><path class="i" d="M276.49,252.88l1.69-14.58s-10.38-.92-11.15-6.92c0,0,.42-7.91,4.59-6.92,4.16,.99,6.49-11.75,17.01-.09s-10.45,13.92-10.45,13.92"/><path class="j" d="M178.99,288.95l-4.65-13.92s-9.79,3.57-13.03-1.53c0,0-2.97-7.34,1.22-8.21s.9-13.39,15.37-7.3c14.47,6.1-3.55,17.04-3.55,17.04"/><polygon class="r" points="260.16 244.12 260.16 264.54 324.21 262.16 324.49 258.07 331.97 257.64 331.97 254.54 330.98 252 351.03 251.29 354.28 236.04 294.56 239.57 294.14 244.8 265.19 243.67 260.16 244.12"/><polyline class="x" points="331.97 257.64 333.67 257.78 334.79 259.9 338.75 259.76 338.89 260.75 340.3 261.03 341.85 263.71 344.25 263.43 347.92 265.12 350.89 265.12 351.59 269.22 357.1 269.22 361.19 270.77 360.77 275.43 342.42 276.7 328.3 277.27 324.63 266.82 324.21 262.16 324.49 258.07"/><polygon class="m" points="333.67 257.78 334.79 259.9 338.75 259.76 338.89 260.75 340.3 261.03 341.85 263.71 344.25 263.43 347.92 265.12 350.89 265.12 351.59 269.22 357.1 269.22 361.19 270.77 360.77 275.43 378.56 274.87 378.98 251.29 351.03 251.29 330.98 252 331.97 254.54 331.97 257.36 333.67 257.78"/><polygon class="e" points="364.44 275.43 360.91 254.68 378.88 254.43 378.56 274.87 364.44 275.43"/><polyline class="e" points="362.75 254.57 362.39 263.29 378.74 262.94"/><line class="e" x1="364.07" y1="254.63" x2="364.16" y2="273.6"/><line class="e" x1="365.38" y1="254.58" x2="365.19" y2="275.29"/><line class="e" x1="366.84" y1="254.58" x2="366.94" y2="275.24"/><line class="e" x1="368.16" y1="254.72" x2="368.49" y2="275.01"/><line class="e" x1="369.81" y1="254.49" x2="370.32" y2="275.15"/><line class="e" x1="371.64" y1="254.49" x2="372.39" y2="275.1"/><line class="e" x1="373.1" y1="254.44" x2="373.95" y2="275.1"/><line class="e" x1="375.27" y1="254.44" x2="375.78" y2="274.96"/><line class="e" x1="376.91" y1="254.44" x2="377.38" y2="274.82"/><line class="e" x1="361.24" y1="255.81" x2="379.03" y2="256"/><line class="e" x1="379.03" y1="257.55" x2="361.48" y2="257.64"/><line class="e" x1="361.76" y1="259.67" x2="378.94" y2="259.48"/><line class="e" x1="378.89" y1="261.55" x2="362.14" y2="261.88"/><line class="e" x1="378.74" y1="264.38" x2="362.56" y2="264.32"/><line class="e" x1="362.79" y1="265.64" x2="378.84" y2="265.92"/><line class="e" x1="378.79" y1="267.67" x2="363.08" y2="267.43"/><line class="e" x1="363.36" y1="269.17" x2="378.7" y2="269.41"/><line class="e" x1="378.7" y1="270.96" x2="363.69" y2="271.05"/><line class="e" x1="364.11" y1="272.75" x2="378.75" y2="272.47"/><line class="e" x1="378.75" y1="273.97" x2="364.34" y2="274.27"/><line class="e" x1="331.97" y1="254.54" x2="360.91" y2="254.68"/><polygon class="x" points="386.75 270.02 389.57 269.92 389.48 261.55 386.47 261.36 386.75 270.02"/><polygon class="o" points="379.3 244.93 378.98 251.29 357.85 251.57 357.99 245.31 379.3 244.93"/><polygon class="o" points="422.61 244.61 422.61 250.31 378.98 251.29 379.3 244.93 422.61 244.61"/><polygon class="n" points="423.52 296.11 422.61 250.31 404.77 250.72 404.81 266.62 415.26 268.51 413.01 284.04 413.29 295.9 423.52 296.11"/><polygon class="l" points="356.32 234.91 356.39 229.48 358.44 229.48 358.51 231.6 368.54 231.38 357.99 245.31 357.85 251.57 351.03 251.29 354.28 236.04 356.91 235.95 356.32 234.91"/><polygon class="x" points="469.08 226.88 450.84 226.72 446.14 227.01 440.21 236.04 438.79 236.04 438.7 228.51 434.84 228.42 434.46 236.42 463.74 235.95 469.08 226.88"/><polygon class="x" points="469.08 226.88 474.65 235.2 463.74 235.95 469.08 226.88"/><path class="x" d="M448.86,217.78l9.79-.19s-3.58-13.18-9.79,.19Z"/><line class="e" x1="454.14" y1="211.57" x2="453.95" y2="206.3"/><line class="e" x1="455.36" y1="208.47" x2="452.72" y2="208.47"/><line class="k" x1="473.81" y1="242.44" x2="471.45" y2="249.69"/><path class="h" d="M471.36,242.35s-4.52-.19-4.71-6.12,5.93-6.02,5.93-6.02c0,0,8.19-5.65,12.14-.09s1.88,6.59,1.88,6.59c0,0-5.08,8.28-10.92,5.74l-4.33-.09Z"/><line class="e" x1="440.25" y1="241.41" x2="467.22" y2="240.84"/><line class="e" x1="442.09" y1="243.52" x2="469.05" y2="242.96"/><line class="e" x1="443.5" y1="245.36" x2="469.34" y2="244.8"/><line class="e" x1="444.21" y1="247.34" x2="469.48" y2="246.49"/><line class="e" x1="446.75" y1="248.61" x2="468.91" y2="248.47"/><polygon class="r" points="422.61 250.31 479.83 249.88 479.83 261.17 465.71 268.32 422.79 264.94 422.61 250.31"/><line class="e" x1="423.17" y1="259.67" x2="452.91" y2="259.85"/><line class="e" x1="422.79" y1="257.22" x2="451.97" y2="257.41"/><line class="e" x1="422.79" y1="254.21" x2="455.36" y2="254.77"/><line class="e" x1="422.98" y1="261.55" x2="451.03" y2="261.92"/><polygon class="r" points="397.76 273.97 401.99 266.11 415.26 268.51 413.01 284.04 408.21 279.01 397.76 273.97"/><line class="e" x1="529.52" y1="262.11" x2="513.9" y2="262.68"/><line class="e" x1="529.52" y1="263.81" x2="514.28" y2="264.75"/><line class="e" x1="529.9" y1="265.69" x2="515.22" y2="266.44"/><line class="e" x1="529.9" y1="267.76" x2="515.59" y2="268.7"/><line class="e" x1="529.9" y1="269.83" x2="516.35" y2="270.77"/><line class="e" x1="530.09" y1="271.9" x2="518.98" y2="272.28"/><line class="e" x1="529.52" y1="256.47" x2="511.45" y2="257.03"/><line class="e" x1="529.71" y1="257.97" x2="511.64" y2="258.54"/><polygon class="s" points="536.86 246.11 537.15 258.82 583.17 257.41 582.79 245.55 539.85 246.1 536.86 246.11"/><line class="e" x1="540.16" y1="256.28" x2="540.16" y2="247.34"/><line class="e" x1="541.76" y1="247.71" x2="541.57" y2="257.5"/><line class="e" x1="543.26" y1="247.52" x2="543.17" y2="257.69"/><line class="e" x1="544.68" y1="247.24" x2="544.96" y2="256.94"/><line class="e" x1="546.65" y1="247.9" x2="546.65" y2="255.52"/><line class="e" x1="548.16" y1="247.52" x2="548.25" y2="255.05"/><line class="e" x1="549.95" y1="247.43" x2="550.04" y2="256.47"/><line class="e" x1="552.3" y1="248.28" x2="552.21" y2="254.02"/><line class="e" x1="554.09" y1="248.18" x2="554.18" y2="256"/><line class="e" x1="555.59" y1="248.18" x2="555.69" y2="254.77"/><line class="e" x1="557.57" y1="247.71" x2="557.66" y2="255.81"/><line class="e" x1="558.79" y1="246.02" x2="558.98" y2="256.75"/><line class="e" x1="560.58" y1="246.3" x2="560.58" y2="254.58"/><line class="e" x1="562.18" y1="246.49" x2="562.09" y2="256.56"/><line class="e" x1="563.97" y1="246.21" x2="564.25" y2="255.05"/><line class="e" x1="565.85" y1="246.21" x2="565.95" y2="256"/><line class="e" x1="567.26" y1="247.43" x2="567.45" y2="255.15"/><line class="e" x1="569.34" y1="246.68" x2="569.34" y2="254.96"/><line class="e" x1="571.31" y1="246.68" x2="571.22" y2="255.34"/><line class="e" x1="573.95" y1="246.49" x2="573.95" y2="256.09"/><line class="e" x1="575.64" y1="246.68" x2="575.74" y2="255.05"/><line class="e" x1="577.15" y1="246.87" x2="577.34" y2="255.71"/><line class="e" x1="578.94" y1="246.68" x2="578.94" y2="255.62"/><line class="e" x1="580.44" y1="247.34" x2="580.54" y2="255.62"/><line class="e" x1="582.79" y1="249.6" x2="539.03" y2="250.91"/><line class="e" x1="583.08" y1="248.09" x2="538.56" y2="249.41"/><path class="x" d="M660.35,305.03s1.98-16.09-1.13-20.89-2.82,3.86-2.82,3.86c0,0-.09,15.91,1.6,16.38s2.35,.66,2.35,.66Z"/><path class="x" d="M669.01,301.36l-1.88-15.81s-3.11-8-3.11,.28,.75,16.85,.75,16.85l4.24-1.32Z"/><path class="x" d="M674.09,291.1l-.66-6.02s-2.64-4.33-2.45,.47,1.69,5.46,1.69,5.46l1.41,.09Z"/><polyline class="e" points="640.86 313.41 639.26 310.58 636.25 311.34 637.29 315.01 632.39 315.2 632.21 311.62 628.16 311.71 628.06 315.29 625.9 315.2 625.9 317.36"/><polyline class="e" points="632.21 311.62 636.25 311.34 635.43 307.64 638.86 307.2"/><line class="e" x1="634.75" y1="291.48" x2="654.32" y2="291.67"/><polyline class="e" points="637.81 291.48 637.57 286.96 642.09 286.96 642.46 291.29"/><polyline class="e" points="653.01 288.09 647.55 288.09 647.55 284.51 653.01 284.51"/><line class="e" x1="642.09" y1="286.96" x2="642.09" y2="283.9"/><line class="e" x1="640.58" y1="283.9" x2="647.55" y2="284.51"/><polyline class="s" points="505.62 254.68 505.62 246.49 536.87 246.19 648.86 245.11 651.12 263.43 659.41 264.37 661.66 271.9 665.81 271.9 663.92 263.62 656.58 262.49 654.51 241.41 651.88 241.45 505.62 243.85"/><path class="n" d="M572.44,311.71l-8-32.73,32.38-1.43-1.43,19.2s-12.12,13.55-22.94,14.96Z"/><polygon class="m" points="572.44 311.71 556.25 317.27 549.19 278.98 563.41 275.45 572.44 311.71"/><polygon class="m" points="549.19 278.98 548.25 276.61 562.65 272.84 563.41 275.45 549.19 278.98"/><polygon class="n" points="465.71 268.32 485.85 270.46 485.85 254.68 479.97 254.78 479.83 261.17 465.71 268.32"/><polygon class="m" points="556.25 317.27 549.19 278.98 548.25 276.61 465.71 268.32 422.79 264.94 423.52 296.11 448.02 296.75 536.92 307.05 536.35 301.27 546.37 299.24 547.81 303.57 553.34 320.47 556.25 317.27"/><line class="m" x1="425.99" y1="268.7" x2="549.19" y2="278.98"/><line class="m" x1="422.79" y1="270.46" x2="445.38" y2="273.21"/><polyline class="e" points="422.79 272.28 448.02 275.08 448.02 292.23"/><line class="m" x1="426.75" y1="275.45" x2="452.91" y2="277.55"/><line class="m" x1="425.99" y1="277.55" x2="452.91" y2="280.56"/><line class="m" x1="424.72" y1="280.56" x2="448.02" y2="282.25"/><line class="m" x1="427.69" y1="282.25" x2="440.25" y2="283.69"/><line class="m" x1="423.52" y1="284.04" x2="436.83" y2="285.45"/><line class="m" x1="423.36" y1="286.77" x2="430.18" y2="286.77"/><line class="m" x1="446.75" y1="290.16" x2="445.38" y2="270.77"/><path class="e" d="M452.91,271.9v14.87s1.93,4.71,2.66,0c.73-4.71,0-13.39,0-13.39"/><line class="e" x1="542.37" y1="294.63" x2="541.57" y2="280.56"/><line class="e" x1="542.37" y1="280.56" x2="543.22" y2="294.63"/><line class="e" x1="543.78" y1="280.56" x2="544.72" y2="294.63"/><line class="e" x1="545.05" y1="280.56" x2="546.32" y2="296.36"/><line class="e" x1="546.65" y1="280.28" x2="548.25" y2="297.08"/><line class="e" x1="547.81" y1="281.03" x2="553.34" y2="313.97"/><line class="e" x1="553.19" y1="300.68" x2="550.23" y2="300.68"/><line class="e" x1="552.21" y1="298.23" x2="549.19" y2="298.23"/><line class="e" x1="551.71" y1="296.36" x2="549.19" y2="296.36"/><line class="e" x1="551.71" y1="294.63" x2="548.82" y2="294.63"/><line class="e" x1="546.65" y1="293.85" x2="542.79" y2="293.85"/><line class="e" x1="551.01" y1="291.74" x2="541.97" y2="290.47"/><line class="e" x1="550.7" y1="289.41" x2="542.04" y2="288.86"/><line class="e" x1="550.23" y1="286.65" x2="544.25" y2="286.65"/><line class="e" x1="550.16" y1="284.21" x2="544.03" y2="284.21"/><polygon class="s" points="547.81 303.57 546.37 299.24 536.35 301.27 536.92 307.05 547.81 303.57"/><path class="e" d="M457.99,275.45s-.09,11.79,.75,11.89,1.13-.47,1.13-.47l-.38-11.42"/><path class="e" d="M470.79,274.91v15.25s1.04,1.79,2.07,0v-14.71"/><path class="e" d="M474.18,275.45v10.76s2.82,6.4,4.14,0v-10.35"/><path class="e" d="M482.37,275.45l.66,9.3s1.22,1.08,1.88,0l-.47-8.89"/><path class="e" d="M487.17,274.91l.42,11.11s.71,2.26,1.93,.38l-.38-9.9"/><path class="e" d="M492.63,274.91v4.52s1.32,3.2,2.54,0v-3.48"/><path class="e" d="M497.34,275.85v8.89s.85,1.36,1.51,0v-8.25"/><polyline class="e" points="502.42 275.85 502.98 286.68 504.49 282.93 504.49 276.61"/><path class="e" d="M507.12,277.88v9.46s.94,2.83,1.88,0v-9.05"/><polyline class="e" points="512.21 277.88 512.21 287.35 513.15 286.68 513.15 279.62"/><polyline class="e" points="517.38 278.98 517.38 283.24 516.35 285.35 516.35 279.81"/><polyline class="e" points="521.43 280.34 521.9 292.7 523.97 290.16 523.12 280.38"/><polygon class="s" points="537.81 311.15 536.92 307.05 547.81 303.57 553.34 320.47 542.04 335.71 537.81 311.15"/><polyline class="e" points="449.9 313.97 452.63 314.3 455.36 314.63"/><line class="e" x1="452.63" y1="314.3" x2="452.63" y2="311.62"/><polyline class="e" points="451.12 311.15 456.02 311.62 456.02 314.63"/><line class="e" x1="459.22" y1="315.71" x2="459.22" y2="318.58"/><polyline class="e" points="464.44 318.58 453.81 318.58 453.81 316.23"/><line class="e" x1="454.89" y1="317.97" x2="452.3" y2="317.97"/><line class="e" x1="457.81" y1="315.71" x2="464.06" y2="315.71"/><polyline class="e" points="463.64 308.23 463.64 305.83 460.94 305.6"/><polyline class="e" points="459.59 305.78 459.59 308.23 462.61 308.23"/><polyline class="e" points="461.1 308.56 461.1 311.15 458.51 311.15 461.57 311.15 464.06 311.15"/><polygon class="e" points="454.89 320.84 454.89 323.64 459.97 323.64 459.59 322.24 454.89 320.84"/><polyline class="e" points="466.28 322.82 466.28 325.45 461.29 325.45"/><line class="e" x1="514.75" y1="308.56" x2="516.44" y2="326.68"/><line class="e" x1="516.44" y1="308.63" x2="518.32" y2="324.61"/><line class="e" x1="519.92" y1="311.62" x2="522.37" y2="325.92"/><line class="e" x1="522.37" y1="311.62" x2="523.69" y2="324.61"/><line class="e" x1="523.69" y1="311.15" x2="526.32" y2="328.09"/><line class="e" x1="527.26" y1="311.15" x2="529.52" y2="325.92"/><line class="e" x1="529.52" y1="311.62" x2="531.69" y2="324.61"/><line class="e" x1="531.69" y1="311.62" x2="533.01" y2="324.61"/><line class="e" x1="533.01" y1="311.62" x2="536.92" y2="335.71"/><line class="e" x1="539.88" y1="326.68" x2="513.99" y2="323.64"/><line class="e" x1="539.12" y1="323.67" x2="524.06" y2="321.6"/><line class="e" x1="538.37" y1="320.47" x2="522.37" y2="318.77"/><line class="e" x1="538.37" y1="318.54" x2="522.93" y2="317.15"/><line class="e" x1="537.99" y1="316.62" x2="522.93" y2="315.1"/><line class="e" x1="536.92" y1="314.63" x2="520.27" y2="313.65"/><line class="e" x1="536.35" y1="313.65" x2="520.77" y2="312.47"/><line class="e" x1="539.88" y1="328.47" x2="518.89" y2="327.24"/><line class="e" x1="540.35" y1="331.48" x2="522.37" y2="329.78"/><line class="e" x1="541.01" y1="334.21" x2="521.15" y2="331.95"/><line class="e" x1="540.35" y1="336.47" x2="519.92" y2="334.68"/><line class="e" x1="537.53" y1="339.05" x2="518.32" y2="337.03"/><line class="e" x1="248.68" y1="326.32" x2="306.28" y2="323.29"/><line class="e" x1="253.95" y1="329.88" x2="305.34" y2="326.32"/><line class="e" x1="252.63" y1="332.7" x2="300.82" y2="329.88"/><line class="e" x1="252.63" y1="335.71" x2="298.56" y2="332.7"/><polyline class="e" points="294.04 337.03 252.63 339.48 250.37 321.66"/><line class="e" x1="255.27" y1="341.17" x2="252.63" y2="321.66"/><line class="e" x1="256.02" y1="335.49" x2="253.95" y2="323.29"/><polygon class="m" points="427.69 324.98 427.97 305.92 445.76 308.04 445.19 320.75 427.69 324.98"/><line class="e" x1="430.18" y1="308.56" x2="430.18" y2="322.82"/><line class="e" x1="432.02" y1="307.01" x2="432.02" y2="320.47"/><line class="e" x1="433.97" y1="306.69" x2="434.09" y2="317.41"/><line class="e" x1="437.01" y1="311.15" x2="437.01" y2="317.97"/><line class="e" x1="440.25" y1="312.05" x2="427.97" y2="311.15"/><line class="e" x1="440.25" y1="310.49" x2="429.77" y2="310.2"/><polygon class="s" points="448.02 300.56 537.81 311.15 536.92 307.05 448.02 296.75 448.02 300.56"/><path class="r" d="M371.41,305.03h0s5.18,4.14,13.08-.66l7.34-5.36,21.46-3.11-.28-11.86-20.74-5.08-36.49,1.41,11.86,6.21,3.76,18.45Z"/><line class="e" x1="147.59" y1="339.48" x2="147.59" y2="336"/><polyline class="e" points="149.43 336 145.34 336 142.65 336 142.65 339.48"/><line class="e" x1="145.19" y1="331.76" x2="145.34" y2="336"/><line class="e" x1="130.94" y1="331.76" x2="143.36" y2="331.76"/><polyline class="e" points="130.94 327.76 135.26 328.07 139.55 328.37"/><line class="e" x1="135.26" y1="328.07" x2="134.61" y2="331.76"/><line class="e" x1="136.16" y1="336" x2="136.16" y2="340.09"/><line class="e" x1="129.67" y1="340.09" x2="140.39" y2="339.48"/><line class="e" x1="138.7" y1="336" x2="133.48" y2="336"/><polyline class="e" points="161.01 339.48 165.67 339.48 165.67 343.9"/><line class="e" x1="163.34" y1="342.18" x2="161.01" y2="342.63"/><line class="e" x1="163.34" y1="347.43" x2="161.01" y2="347.43"/><line class="e" x1="163.34" y1="345.45" x2="161.01" y2="345.45"/><line class="e" x1="167.64" y1="347.43" x2="167.64" y2="349.97"/><line class="e" x1="172.02" y1="347.43" x2="172.02" y2="349.27"/><polyline class="e" points="175.41 342.63 171.03 342.63 170.65 340.09 170.04 336"/><polyline class="e" points="170.65 340.09 172.75 340.09 174.84 340.09"/><polyline class="e" points="172.98 340.09 172.98 336.8 175.9 336.8"/><line class="e" x1="185.01" y1="340.8" x2="199.97" y2="339.31"/><line class="e" x1="191.08" y1="335.29" x2="197.57" y2="335.29"/><line class="e" x1="185.15" y1="333.88" x2="196.44" y2="333.17"/><line class="e" x1="146.04" y1="324.81" x2="243.87" y2="317.66"/><polyline class="e" points="229.33 323.29 229.33 326.32 242.04 326.32"/><polyline class="e" points="235.68 324.81 235.68 323.29 240.06 323.29 240.06 324.81"/><line class="e" x1="235.12" y1="326.32" x2="235.12" y2="328.07"/><line class="e" x1="240.76" y1="338.44" x2="240.06" y2="335.29"/><line class="e" x1="237.87" y1="335.29" x2="242.04" y2="334.46"/><line class="e" x1="237.87" y1="333.88" x2="237.87" y2="332.34"/><line class="e" x1="237.87" y1="331.07" x2="242.04" y2="330.51"/><line class="e" x1="229.33" y1="339.48" x2="243.87" y2="338.44"/><polyline class="e" points="228.06 334.87 228.06 332.34 230.88 332.34"/><path class="e" d="M226.08,336h0Z"/><line class="e" x1="226.08" y1="338.44" x2="226.08" y2="336"/><polyline class="e" points="220.44 336 220.44 340.09 225.09 339.78"/><polyline class="e" points="231.87 335.29 235.12 335.29 235.68 338.96"/><line class="e" x1="235.12" y1="331.76" x2="235.12" y2="335.29"/><polyline class="e" points="231.45 328.37 237.87 328.37 237.87 331.07 231.45 331.07 231.45 328.37 227.07 328.37 227.07 326.32"/><line class="e" x1="242.04" y1="327.76" x2="237.87" y2="328.37"/><polyline class="n" points="169.26 312.08 157.01 312.77 148.19 317.95 147.59 307.99"/><path class="n" d="M186.56,283.58v-8.12l7.76,6.71s-8.99,1.54-7.76,1.41Z"/><path class="n" d="M194.32,282.17c5.6-.96,10.81-1.9,11.44-3.17v-1.88l-6.35-4.85-4.73,.47-6.07,1.91-2.05,.52,7.76,7"/><path class="n" d="M195.27,281.98c-7.12,.88-15.69,2.64-15.52,4.6,0,0-.88,9.04,6.81,9.32l181.08-9.32-11.86-6.21-13.36-3.67-14.12,.56-3.67-10.45-.42-4.66-120.07,3.62v6.02l-4.73,.47,6.35,4.85v1.88s-1.18,1.82-10.49,2.97Z"/><line class="e" x1="211.87" y1="269.22" x2="324.63" y2="266.82"/><line class="e" x1="209.71" y1="275.43" x2="215.36" y2="275.43"/><line class="e" x1="211.87" y1="276.7" x2="219.5" y2="276.7"/><line class="e" x1="232.47" y1="270.49" x2="307.22" y2="268.65"/><line class="e" x1="233.43" y1="272.28" x2="287.22" y2="271.48"/><line class="e" x1="233.78" y1="273.97" x2="308.54" y2="272.75"/><line class="e" x1="233.78" y1="275.43" x2="305.34" y2="275.43"/><path class="n" d="M371.41,305.03l2.12,6.82,13.53-1.69,10.14-7.48,30.49-2.12h20.33v-3.81l-24.49-.64-10.24-.21-21.46,3.11s-13.6,12.47-20.42,6.02Z"/><path class="x" d="M0,425l95.58-121.99,8.39-10.71,40.75-.65-43.43,15.83,28.99,8.75-7.91,60.14,125.46-34.45,35.86,4.8,37.55-.56,45.69-12.28,60.75-8.89,9.14-2.22,75.28,17.75s20.71,3.31,22.31,.85,7.62-5.65,7.62-5.65l11.29-15.25,2.92-3.2,16.19-5.55s19.34-6.87,22.94-14.96l-1.3,19.48,25.41,4.8,28.99,10.16-7.19-27.62,62.34,17.46,10.73,.94-1.61-9.51,87.24,112.53H0Z"/><path class="h" d="M707.59,281.88l4-4.12,1.13,.49,2.47-4.66h3.95l3.32-4.24h2.12l2.75-4.52,1.13,3.88,3.88-4.94,2.47,3.46,3.32-5.15,2.75,2.33,4.59-5.22,3.67,1.76,.85-1.76,1.62,2.12,3.18-4.16,1.91,1.84,2.61-3.67,2.33,2.47,2.89-3.25,1.91,4.02,3.67-4.02,.99,2.54,1.84-2.54,1.69,1.62,2.75-3.81,2.33,2.82,2.05-2.82,2.05,2.12,2.82-3.53,2.33,1.27,2.96-3.04,1.84,1.41,1.34-2.33,1.13,2.26,1.76-1.76,1.89,3.06,.11,47.43s-22.76-4.82-29.32,.19c0,0-11.65,.14-18.49,4.38l-3.6-3.88-12.35,.99-24.54,4.92-4.09-23.95Z"/><ellipse cx="724.44" cy="285.65" rx="5.93" ry="3.57"/><ellipse cx="739.26" cy="286.3" rx="2.96" ry="3.57"/><ellipse cx="742.23" cy="277.7" rx="5.93" ry="1.79"/><ellipse cx="754.85" cy="269.49" rx="6.69" ry="4.35"/><ellipse cx="763.53" cy="279.33" rx="5.93" ry="1.79"/><ellipse cx="760.57" cy="291.74" rx="2.96" ry="3.57"/><ellipse cx="780.84" cy="282.25" rx="5.93" ry="3.57"/><ellipse cx="780.84" cy="267.67" rx="5.93" ry="3.57"/><ellipse cx="792.7" cy="261.83" rx="5.93" ry="1.79"/><ellipse cx="792.7" cy="275.57" rx="5.93" ry="1.79"/><ellipse cx="792.7" cy="289.88" rx="5.93" ry="1.79"/><ellipse cx="767.46" cy="265.15" rx="5.93" ry="1.79"/><line class="f" x1=".39" y1="343.9" x2="19.97" y2="329.91"/><line class="f" x1=".39" y1="349.97" x2="35.22" y2="341.17"/><line class="f" x1="27.5" y1="338.16" x2="49.52" y2="325.36"/><polyline class="f" points="44.44 330.35 57.34 323.48 76.44 312.97"/><line class="f" x1="12.44" y1="342.77" x2="29.38" y2="333.55"/><line class="f" x1="2.65" y1="344.37" x2="19.5" y2="335.52"/><line class="f" x1="40.02" y1="343.43" x2="68.72" y2="332.51"/><line class="f" x1="40.02" y1="339.01" x2="65.15" y2="327.71"/><polygon points="745.05 327.24 786.77 315.86 780.84 307.2 761.53 305.78 752.18 303.81 745.05 318.11 745.05 327.24"/><ellipse cx="173.43" cy="263.43" rx="1.17" ry="3.03" transform="translate(-93.67 431.16) rotate(-88.77)"/><ellipse cx="177.13" cy="260.5" rx="1.17" ry="3.03" transform="translate(-128.09 338.42) rotate(-70.11)"/><ellipse cx="170.39" cy="259.07" rx="2.92" ry="1.31" transform="translate(-93.83 96.78) rotate(-25.11)"/><ellipse cx="163.06" cy="269.96" rx="1.31" ry="2.18" transform="translate(-28.5 19.42) rotate(-6.27)"/><ellipse cx="167.68" cy="265.36" rx="2.2" ry="1.84" transform="translate(-96.75 96.22) rotate(-25.11)"/><ellipse cx="178.65" cy="266.57" rx="4.2" ry="1.85" transform="translate(-96.23 100.99) rotate(-25.11)"/><ellipse cx="169.7" cy="268.71" rx="4.56" ry="1.09" transform="translate(-97.98 97.4) rotate(-25.11)"/><ellipse cx="170.74" cy="272.82" rx="4.35" ry="1.33" transform="translate(-36.57 26.64) rotate(-8.06)"/><path class="j" d="M178.77,290.05l-6.01-4.31s-3.07,4.18-5.92,3.03c0,0-3.39-2.13-1.88-3.65s-3.53-5.65,4.32-7.24c7.85-1.59,3.47,7.86,3.47,7.86"/><ellipse cx="169" cy="281.32" rx="1.53" ry=".58" transform="translate(-123.69 132.88) rotate(-32.11)"/><ellipse cx="169.69" cy="279.11" rx="1.54" ry=".57" transform="translate(-62.98 49.85) rotate(-14.13)"/><ellipse cx="166.45" cy="280.42" rx="1.45" ry=".66" transform="translate(-159.6 274.79) rotate(-58.32)"/><ellipse cx="166.55" cy="286.86" rx=".66" ry="1.09" transform="translate(-151.79 193.64) rotate(-43.54)"/><ellipse cx="167.15" cy="283.71" rx="1.09" ry=".93" transform="translate(-160.29 248.85) rotate(-53.42)"/><ellipse cx="172.1" cy="281.13" rx="2.08" ry=".94" transform="translate(-157.52 280.07) rotate(-58.34)"/><ellipse cx="168.97" cy="284.5" rx="2.26" ry=".55" transform="translate(-161.91 281.24) rotate(-58.73)"/><ellipse cx="170.6" cy="285.86" rx="2.18" ry=".66" transform="translate(-146.47 184.45) rotate(-41.43)"/><path d="M396.55,172.57c3.12-2.42,6.47-4.52,10.02-6.26,.3-.15,2.45-1.38,2.67-1.23,.37,.24-.17,1.57-.32,1.99-.68,1.95-1.81,3.66-3.23,5.15-.11,.12,.06,.29,.18,.18,3.08-3.09,6.64-5.66,10.53-7.64,.51-.26,1.03-.51,1.55-.75,.68-.31,1.56-1.02,.97,.29-.15,.32-1.66,2.92-1.86,2.77,.24,.18,.55-.57,.74-.85,.29-.43,.6-.86,.91-1.28,.67-.89,1.38-1.74,2.14-2.56,1.41-1.53,2.95-2.94,4.59-4.21,.86-.66,1.75-1.29,2.66-1.88,.28-.18,2.36-1.55,2.45-1.46,.17,.17-3.52,4.97-3.87,5.45-1.52,2.03-3.11,4-4.76,5.93-.1,.12,.06,.29,.18,.18,2.85-2.82,5.95-5.37,9.28-7.61,.37-.25,.75-.52,1.13-.74,.67-.38,.31-.3,.16,.08-.36,.86-1.14,1.75-1.7,2.49-1.22,1.63-2.6,3.13-4.09,4.53l.18,.18c3.5-3.65,7.38-6.91,11.58-9.72,.49-.33,.99-.66,1.49-.97,.74-.47,.53-.37,.11,.28l-2.25,3.54-4.51,7.07c-.08,.12,.1,.25,.2,.15,2.37-2.4,4.88-4.64,7.54-6.72,2.82-2.2,5.86-4,8.83-5.98,.32-.22,.57-.48,.06,.14-.25,.3-.46,.63-.7,.94-.51,.69-1.03,1.38-1.55,2.06-1.23,1.61-2.49,3.2-3.77,4.77-2.29,2.81-4.66,5.55-7.1,8.24-.11,.12,.06,.29,.18,.18,3.94-3.58,8.08-6.94,12.41-10.04,2.09-1.5,4.23-2.95,6.41-4.33,.51-.33,1.03-.65,1.55-.97,.1-.06,.98-.59,.97-.6-.01-.03,.63-2-.21,.34-.4,1.13-1.44,2.3-2.13,3.26-.76,1.06-1.58,2.08-2.43,3.07-.38,.44-.84,.85-1.19,1.31,.4-.53-.6,.59-.19,.46,.14-.05,.62-.87,.71-1,1.46-1.99,3.07-3.88,4.79-5.65s3.43-3.31,5.3-4.8c.99-.79,2-1.55,3.04-2.27,.53-.37,1.06-.72,1.6-1.07,1-.64,.25-.14-.16,.38l-11.89,14.96c-.08,.1,.03,.29,.15,.2,4.22-3.16,8.65-6.03,13.26-8.59,2.26-1.25,4.56-2.43,6.89-3.53,.15-.07,1.63-.78,1.63-.78,0,0-1.18,1.28-1.28,1.39l-2.82,3.16c-.11,.12,.05,.28,.18,.18l6.69-5.31c.34-.27,2.77-2.35,2.82-2.32-.01,0-1.93,3.32-2.12,3.64-.06,.1,.07,.25,.17,.17l4.73-3.57,2.17-1.63c.37-.28,.88-.54,1.18-.89,.48-.56-.23-.1-.5,.12l-4.31,3.49c-.32,.26-.76,.72-1.12,.91l-.37,.3c-.36-.12-.54-.35-.54-.7-.35-1.05,.2-2.35,.77-3.19,.08-.12-.09-.24-.2-.15l-6.93,6.19-3.28,2.93c-.13,.12-.6,.66-.82,.68-.24,.03,.05-1.04,.05-1.02,.24-.86,.77-1.57,1.43-2.16,.12-.11-.06-.28-.18-.18l-3.55,3.03c-.24,.2-1.56,1.51-.73,.65,.62-.65,1.12-1.53,1.67-2.23,1.88-2.36,3.99-4.53,6.26-6.51,.12-.11-.06-.28-.18-.18l-7.02,6.07-1.66,1.44c-.53,.46-1.22,1.29-1.85,1.6-.3,.15-.25,.5-.11-.14,.05-.25,.18-.5,.27-.73,.28-.72,.62-1.43,.99-2.11,.64-1.17,1.4-2.27,2.26-3.29,.44-.52,.91-1.03,1.4-1.5,.19-.19,.44-.36,.61-.57,.45-.54,.19-.32,.02-.1-1.92,2.47-3.58,5.19-5.36,7.77l.22,.13c1.67-2.89,3.51-5.68,5.54-8.33,.55-.72,1.11-1.44,1.69-2.14,.48-.59,1.32-1.27,1.64-1.94,.25-.52-.04-.14-.24,.05-.28,.27-.54,.76-.77,1.08-.56,.77-1.13,1.53-1.72,2.28-1.98,2.53-4.12,4.95-6.38,7.24-.15,.15-.55,.64-.61,.68,.09-.06,.32-.52,.43-.73,.41-.77,.85-1.52,1.33-2.25,.95-1.48,2.03-2.88,3.2-4.2l-.18-.18c-3.77,4.83-7.92,9.36-12.4,13.55-.55,.52-1.11,1.03-1.67,1.53-.18,.16-1.22,1.3-1.44,1.24-.2-.05,.88-3.41,1.01-3.74,1.13-2.89,2.98-5.43,5.25-7.53,.12-.11-.06-.29-.18-.18l-8.09,7.45c-.23,.21-1.39,1.5-1.59,1.42-.14-.06,.37-1.96,.42-2.15,.39-1.46,.98-2.86,1.73-4.16,.71-1.24,1.56-2.39,2.53-3.44,.45-.49,.93-.96,1.43-1.4,.05-.04,.87-.8,.82-.82-.07-.02-.69,1-.74,1.06-1.84,2.6-3.88,5.05-6.08,7.35-1.07,1.11-2.18,2.19-3.33,3.23-.24,.22-1.31,1.38-1.46,1.38,.18,0,1.05-2.01,1.19-2.25,1.55-2.75,3.37-5.35,5.42-7.75,.47-.56,.96-1.1,1.46-1.64,.16-.17,1.32-1.61,1.54-1.58-.31-.04-.86,1.04-1.11,1.4-.51,.74-1.03,1.47-1.56,2.19-1.97,2.67-4.14,5.2-6.46,7.57-.08,.08-.9,1-.97,.98,.1,.04,.31-.61,.36-.74,.3-.73,.62-1.45,.95-2.16,.71-1.51,1.48-2.99,2.31-4.44,.73-1.27,1.51-2.52,2.34-3.73,.41-.61,.84-1.22,1.28-1.81,.22-.3,.44-.6,.67-.89,.11-.15,1.21-1.3,.77-1.37-.18-.03-1.39,1.78-1.56,1.99-.45,.55-.9,1.1-1.36,1.64-1.02,1.2-2.08,2.37-3.16,3.51-2.09,2.2-4.3,4.3-6.6,6.28-1.21,1.04-2.46,2.05-3.72,3.03-.28,.22-1.51,1.4-1.73,1.39,.16,0,1.01-1.75,1.13-1.95,1.62-2.65,3.5-5.16,5.57-7.48s4.15-4.28,6.47-6.16c.11-.09,.81-.47,.58-.58,0,0-.52,.8-.48,.74-.41,.61-.82,1.22-1.24,1.83-.93,1.34-1.88,2.65-2.87,3.94-2.26,2.96-4.67,5.8-7.21,8.52-.62,.66-1.24,1.31-1.88,1.96-.32,.32-.64,.64-.96,.96-.11,.11-.7,.81-.57,.74,.42-.23,1.04-1.78,1.29-2.18,.44-.72,.9-1.44,1.37-2.15,3.9-5.9,8.62-11.22,13.92-15.91l-.18-.18c-2.04,2.28-4.21,4.42-6.53,6.42-.56,.48-1.22,.92-1.73,1.44-.36,.37-.05,.09,.11-.09,.22-.24,.39-.56,.58-.82,.92-1.25,1.93-2.43,3.01-3.54,2.04-2.08,4.34-3.89,6.83-5.4,.07-.04,.69-.47,.73-.38,.05,.1-.33,.75-.38,.87l-1.06,2.39-2.01,4.57c-.05,.12,.09,.26,.2,.15,2.66-2.52,5.46-4.89,8.4-7.09,.67-.5,1.34-.99,2.02-1.47,.1-.07,1.01-.81,1.12-.78,.32,.08,.15,.57,.13,.86-.2,1.95-.92,3.78-1.94,5.44-.05,.09,.04,.22,.14,.18,1.33-.48,2.4-1.26,3.22-2.41l-.22-.13c-1.53,3.53-3.81,6.62-6.65,9.21l.18,.18c2.67-2.58,5.4-5.1,8.2-7.55,1.37-1.2,2.76-2.39,4.17-3.56,.36-.3,.76-.59,1.1-.91s.54-.57,.05-.02c-.58,.65-1.01,1.47-1.52,2.17-2.08,2.89-4.33,5.66-6.72,8.29-1.21,1.34-2.46,2.64-3.75,3.91-.32,.32-.67,.62-.97,.95-.26,.29-.45,.61-.09-.11,.41-.83,.72-1.73,1.08-2.59,.05-.13-.13-.19-.21-.12l-5.16,4.41-2.21,1.89c-.21,.18-2.63,1.97-2.58,2.21-.06-.28,.96-1.84,1.18-2.26,.47-.9,.95-1.8,1.45-2.69,1.08-1.93,2.24-3.81,3.46-5.65,.08-.12-.09-.24-.2-.15l-15.86,13.98c-1.27,1.12-2.51,2.4-3.87,3.41-.36,.27-.18,.18,0-.16,.2-.39,.36-.79,.55-1.18,.32-.66,.65-1.31,1-1.95,1.64-3,3.61-5.79,5.83-8.38,.1-.12-.06-.29-.18-.18-3.67,3.55-7.54,6.89-11.59,10-.5,.38-.99,.76-1.49,1.13-.25,.19-.5,.37-.75,.56-.38,.39-.48,.39-.29,0,.03-.8,1.08-2.1,1.51-2.76,1.26-1.93,2.83-3.6,4.61-5.05,.11-.09-.04-.28-.15-.2l-7.22,5.54-1.95,1.5c-.31,.24-1.46,1.25-.62,.53,1.06-.91,1.93-2.29,2.86-3.35,3.84-4.4,7.88-8.61,12.1-12.65l-.18-.18c-3.1,3.26-6.32,6.4-9.65,9.43-1.62,1.47-3.26,2.91-4.93,4.32-.84,.71-1.68,1.41-2.53,2.1-.36,.3-.73,.59-1.1,.89-.14,.11-1.12,.98-1.04,.97,.31-.04,1.51-2.15,1.73-2.45,.67-.92,1.36-1.83,2.07-2.72,1.26-1.59,2.57-3.13,3.94-4.63,2.87-3.15,5.96-6.08,9.22-8.81l-.18-.18c-6.51,6.85-13.92,12.81-21.98,17.74-.18,.11-1.51,.75-1.52,.91,0,.1,.8-.82,.92-.95,.77-.91,1.56-1.81,2.36-2.69,1.61-1.78,3.26-3.52,4.97-5.22,3.44-3.42,7.08-6.64,10.87-9.67l-.18-.18-13.65,13.03,.18,.18c2.72-2.91,5.57-5.7,8.55-8.34,1.5-1.33,3.04-2.63,4.6-3.89,.36-.29,.73-.58,1.09-.87,.17-.14,1.25-1.21,.9-.83-.62,.67-1.18,1.41-1.79,2.09-2.6,2.87-5.54,5.43-8.72,7.64-.11,.08-.75,.55-.78,.51-.06-.07,.61-1.53,.57-1.43,.38-.85,.82-1.67,1.31-2.45,1.01-1.61,2.25-3.06,3.64-4.36l-.18-.18c-4.6,5.59-9.55,10.87-14.82,15.84l.18,.18,10-11.37c.11-.12-.06-.29-.18-.18-3.13,3.23-6.63,6.07-10.43,8.48-.84,.53-1.7,1.05-2.57,1.54-.37,.21-2.79,1.78-3.05,1.6-.39-.28,3.07-4.8,3.39-5.17,.67-.79,1.38-1.54,2.13-2.25,.35-.33,.72-.66,1.09-.98,.21-.18,.46-.33,.64-.54,.36-.39,.46-.5,0-.09-.9,.79-1.67,1.85-2.47,2.74l-2.64,2.93c-.23,.25-1.17,1-1.15,1.28,.02,.43,.67-.74,.75-.85,.69-1.02,1.42-1.99,2.21-2.93,1.34-1.61,2.83-3.1,4.42-4.47,.53-.46,1.08-.9,1.64-1.33-.03,.03,.67-.48,.67-.5-.04-.21-.39,.38-.44,.44-.79,1.08-1.65,2.12-2.57,3.1-.44,.47-.9,.93-1.37,1.38-.33,.31-1.18,1.32-.33,.39,.99-1.08,1.81-2.38,2.7-3.55,.09-.12-.1-.24-.2-.15-2.37,2.07-4.84,4.03-7.4,5.87-1.23,.88-2.49,1.74-3.76,2.56-.64,.41-1.28,.82-1.93,1.22-.29,.18-.65,.52-.98,.59s-.29,.45-.03-.21c.49-1.25,1.41-2.48,2.16-3.59,.82-1.23,1.7-2.41,2.64-3.55,1.88-2.29,3.98-4.38,6.24-6.29l-.18-.18c-3.21,3.86-6.64,7.52-10.3,10.96-.89,.84-1.8,1.67-2.72,2.48-.27,.24-1.01,1.09-.43,.34,.34-.43,.59-.96,.9-1.41,1.43-2.12,3.12-4.03,4.99-5.77,.12-.11-.05-.28-.18-.18l-10.58,8.79c-.25,.2-.89,.97-1.14,1,.05,0,.43-.82,.53-1,.45-.82,.96-1.61,1.51-2.36,.64-.87,1.35-1.68,2.11-2.45,.28-.29,.64-.54,.9-.85,.64-.78-.06,.06-.24,.32-1.17,1.69-2.55,3.25-4.06,4.65-.82,.76-1.68,1.47-2.58,2.13-.13,.1-.91,.78-1.05,.74,0,0,.39-.79,.49-.99,1.74-3.42,4.01-6.57,6.64-9.37,1.5-1.59,3.11-3.07,4.83-4.42,.28-.22,2.66-1.81,2.63-1.93,.05,.19-.7,1.27-.83,1.51l-1.03,1.92c-.07,.12,.09,.25,.2,.15l4.23-4.25c.14-.14,1.04-1.08,1.06-1.06,.07,.06-.04,.5-.12,.77-.28,.98-.75,1.88-1.3,2.73-.08,.13,.09,.24,.2,.15l3.92-3.3,1.87-1.57c.26-.22,1.54-1.46,1.61-1.46-.19,0-1.09,1.89-1.23,2.12l-1.23,2.12-2.7,4.67c-.06,.11,.06,.23,.17,.17l3.5-2.01c.16-.09,1.68-1.15,1.86-1.06,.3,.14-.14,1.34-.21,1.61-.69,2.75-1.69,5.4-2.94,7.94-.06,.13,.09,.24,.2,.15l6.24-5.01c1.07-.86,2.17-1.69,3.21-2.58,.74-.63,.14,.12-.06,.54-.28,.59-.57,1.18-.86,1.77-1.96,3.98-4.07,7.88-5.96,11.9l.22,.13c.35-.79,.64-1.07,1.42-1.35,.57-.2,1.01-.51,1.47-.91,.12-.11-.05-.27-.18-.18-.71,.56-1.41,1.24-2.18,1.72-.35,.21-.47,.46-.84,.15-.31-.26-.46-.92-.57-1.28-.5-1.73-.06-3.51,.95-4.96,.08-.12-.1-.25-.2-.15l-4.26,4c-.71,.67-1.42,1.33-2.13,2-.65,.61-1.11,1.36-1.82,1.91s-1.57,.99-2.48,1.23c-.56,.15-.52,.24-.41-.23,.09-.39,.54-.86,.76-1.2l3.16-5.02c.08-.13-.09-.24-.2-.15-1.09,.91-2.22,1.76-3.42,2.52-.61,.39-1.23,.75-1.86,1.1-.38,.21-1.34,.92-1.74,.89-.21,.16-.26,.13-.15-.11,.02-.14,.06-.27,.13-.39,.12-.31,.3-.63,.46-.92,.3-.55,.62-1.09,.97-1.61,.84-1.23,1.83-2.34,2.92-3.35l-.18-.18c-2.34,2.62-5.05,4.89-8.05,6.73-.17,.1-1.12,.56-1.11,.65,0,.03,.58-.8,.6-.82l1.61-2.41,3.23-4.81-.22-.13c-.7,1.42-1.62,2.69-2.78,3.76-.42,.39-1.47,1.57-2.05,1.47-.49-.08-.3-1.85-.22-2.24,.14-.72,.42-1.41,.82-2.03,.22-.34,.46-.67,.75-.95,.59-.58-.01,.19-.11,.38-.74,1.35-1.57,2.6-2.65,3.71-.46,.47-.95,.92-1.46,1.33-.44,.36-1.05,.96-1.7,.72-.45-.17-.83-.81-.94-1.24l-.06-.52c.03-.57,.07-.69,.12-.36,.21,.06-.4,1.07-.79,.6-.42-.51-.1-2.64,0-3.2,.11-.69,.29-1.37,.53-2.02,.07-.19,.67-1.23,.7-1.52,.02-.24-.24,.41-.28,.53-.52,1.7-1.35,3.26-2.37,4.7-.07,.1,.07,.24,.17,.17,4.59-3.31,9.45-6.25,14.52-8.77,.61-.3,1.22-.66,1.85-.89,.89-.34,.28,.46,.08,1.02-.5,1.4-.96,2.82-1.39,4.24-.85,2.83-1.56,5.7-2.13,8.6-.02,.09,.06,.18,.15,.15,6.7-1.64,13.45-3.13,20.11-4.94,4.5-1.22,9.56-2.98,12.04-7.23,.07-.12-.1-.26-.2-.15l-13.01,13.95c-.11,.12,.06,.28,.18,.18,2.28-1.94,4.83-3.49,7.49-4.85,1.29-.66,2.6-1.28,3.92-1.88,.68-.31,1.58-.93,2.31-1.03,.28-.2,.52-.15,.72,.13,.26,.36,.46,.33,.61-.09,.27-.17,.49-.6,.69-.85,1.87-2.27,3.9-4.4,6.06-6.39,.55-.5,1.1-.99,1.67-1.48,.26-.23,.54-.55,.85-.72,.44-.24,.3-.39,.49,.09,.23,.57,.03,1.86,.04,2.48l.04,2.73c0,.09,.11,.16,.19,.11,1.81-1.21,3.47-2.59,4.97-4.17,.11-.12-.05-.28-.18-.18-1.47,1.19-3.03,2.3-4.38,3.62-1.25,1.23-2.2,2.71-3.08,4.22-.06,.1,.07,.25,.17,.17,2.2-1.62,4.58-2.78,7-4,1.19-.6,2.35-1.26,3.46-2.01l.37-.26c.35-.36,.46-.4,.33-.12,.02,.25-.31,.67-.44,.9-.48,.86-1.08,1.65-1.74,2.39-.11,.12,.06,.28,.18,.18l6.22-5.52-.18-.18-4.24,5.24c-.08,.1,.03,.29,.15,.2l5.66-4.03c.94-.67,1.9-1.33,2.83-2.02s-.18,.24-.38,.41c-.32,.29-.65,.53-1.06,.68-.89,.33-1.79-.03-2.7,.13-1.19,.2-2.01,1.17-2.7,2.08-.09,.11,.1,.25,.2,.15,1.61-1.68,3.39-3.15,5.44-4.27,1.49-.82,3.08-1.44,4.6-2.2s3.03-1.71,4.35-2.86c.47-.41,.92-.84,1.36-1.29,.33-.34,.84-1.18,.29-.33-.77,1.2-1.37,2.54-2.04,3.79-.06,.11,.06,.24,.17,.17l7.54-4.67,1.68-1.04c.29-.18,.71-.54,1.05-.65,.52-.17,.51-.15,.8,.32,.83,1.36,.51,3.5,.05,4.9-.04,.12,.12,.21,.21,.12l3.63-3.56-.18-.18c-1.09,1.31-2.29,2.52-3.61,3.61-.34,.28-1.84,1.78-2.35,1.42-.21-.15-.17-1.27-.16-1.51,0-.68,.13-1.32,.31-1.97,.03-.11-.13-.22-.21-.12-.4,.51-.82,.98-1.3,1.41-.34,.3-.7,.56-1.07,.81-.15,.1-.74,.29-.37,.43,.15,.06,1.76-1.3,2.05-1.49,.6-.4,1.21-.78,1.83-1.14,1.15-.66,2.57-1.62,3.87-1.91,.68-.15,.6-.06,.79,.53,.11,.36,.13,.8,.18,1.17l.4,2.58c.01,.09,.15,.12,.21,.06l3.26-3.95c.05-.06,.52-.62,.4-.6-.13,.03-.36,1.05-.41,1.17l-.9,2.57c-.05,.15,.18,.21,.24,.07l2.56-6.69,.26-.69c-.71,.5-1.15,.13-1.34-1.11,.03-.4,.36-.85,.5-1.25,.2-.61,.23-1.07-.13-1.61-.04-.06-.14-.09-.2-.03-.65,.71-1.32,1.73-2.1,2.3-.52,.38-.9,.54-1.34-.18-.39-.64-.38-1.33-.13-2.01,.04-.1-.1-.2-.18-.14-1.5,.92-3.69,.81-4.76-.72-.06-.08-.16-.08-.22,0l-2.81,3.87c-.25,.34-.8,1.5-1.17,1.61-.22,.06,.02-.67,.09-.9,.18-.55,.54-1.01,.95-1.4l-.18-.18-1.87,2.23c-.14,.17-.51,.76-.67,.79-.11,.02,.02-.8,.06-.99,.15-.84,.45-1.65,.85-2.41s1.09-1.28,1.47-1.98c.26-.47-.14,.02-.26,.14-.35,.31-.72,.94-1.05,1.32-.51,.61-1.06,1.19-1.63,1.75-.26,.26-.52,.51-.79,.75s-.62,.82-.7,.3c.09-.34,.25-.65,.48-.9,.37-.31,.27-.42-.3-.34l-.58-1.54c.15-.25,.32-.49,.51-.71l-.22-.13-2.56,3.62c-.06,.08,.02,.18,.11,.19,1.1,.08,0-1.33-.83-1.28-1.16,.08-2.37,1.04-3.37,1.53-.94,.47-1.91,.86-2.97,.63-.93-.19-2.08-.87-1.62-2,.04-.11-.1-.19-.18-.14-.66,.37-4.96,3.24-5.37,2.81-.09-.09,.05-1.28,.05-1.42l.05-1.42,.12-3.3c0-.11-.14-.17-.21-.09-2.61,2.88-5.64,5.34-8.98,7.32-1.76,1.04-3.59,1.95-5.49,2.71-.4,.16-2.22,.94-2.3,.77-.13-.26,1.7-2.45,1.91-2.76,.06-.08-.04-.23-.14-.18l-5.49,2.3-2.64,1.1c-.41,.17-.82,.36-1.24,.51-.46,.17-3.61,.9-2.61-1.14,.06-.13-.09-.24-.2-.15l-2.83,2.28,.18,.18,3.49-3.65c.1-.11-.03-.25-.15-.2-4.41,2.05-8.39,4.88-11.71,8.44-.11,.12,.07,.29,.18,.18,2.16-2.32,4.6-4.35,7.29-6.04,.32-.2,3.93-2.26,3.97-2.18,.03,.07-2.92,2.93-3.25,3.27-.11,.12,.05,.28,.18,.18l1.41-1.14c.14-.11,.89-.85,1.06-.85,.15,0-.2-.48-.01,.19,.03,.11,.05,.24,.1,.35,.54,1.25,2.22,.81,3.16,.46,2.06-.77,4.07-1.7,6.1-2.55,.49-.21,2.3-1.26,2.66-1.08-.06-.03-1.75,2.53-1.91,2.76-.06,.09,.04,.22,.14,.18,4.17-1.37,8.12-3.35,11.65-5.96,1.62-1.2,3.15-2.52,4.56-3.96,.21-.22,.69-.84,.85-.77,.12,.05-.07,1.85-.08,2.12l-.15,4.01c0,.1,.11,.15,.19,.11l3.43-1.95c.43-.24,.87-.47,1.29-.73,.63-.39,.4-.42,.52-.1,.36,.95,.67,1.45,1.79,1.74,1.48,.38,2.77-.32,4.04-1.01,.57-.31,1.16-.68,1.79-.88l.38-.13c.64-.18,1.17-.03,1.59,.47,.22-.01,.99-1.4,1.14-1.61l1.14-1.61c.09-.13-.12-.25-.22-.13-.46,.59-1.27,1.72-.45,2.38,.49,.39,1.24,.33,1.55-.22,.07-.13-.09-.25-.2-.15-.7,.62-1.08,1.32-1.14,2.26,0,.12,.14,.15,.21,.09,1.9-1.6,3.58-3.4,5-5.44,.08-.12-.1-.24-.2-.15-1.8,1.68-2.93,3.89-2.92,6.37,0,.1,.14,.17,.21,.09l2.81-3.35c.1-.12-.06-.29-.18-.18-.81,.78-1.24,1.73-1.12,2.87,.01,.13,.16,.17,.23,.06,1.21-1.66,2.33-3.45,3.65-5.03,.65-.77,.54-.35,1.19,.07,.44,.28,.95,.46,1.46,.54s1.09,.06,1.62-.06c.16-.04,.46-.2,.63-.21,.58-.03,.07-.41,.19,.18,.1,.48-.02,.82,.19,1.3,.24,.53,.63,.89,1.12,1.18,.05,.03,.11,.02,.15-.02l1.5-1.64c.07-.08,.8-.99,.9-.99,.55,.03-.04,1.66-.08,1.74-.23,.59-.59,1.49-.02,2.03s2.1-.03,1.55-.84c-.06-.09-.19-.07-.23,.03l-3,7.84,.24,.07,1.47-4.21c.04-.11-.13-.22-.21-.12-1.1,1.34-2.14,2.97-3.41,4.14-.36,.33-.26,.5-.52,.11-.17-.25-.13-.85-.18-1.17l-.44-2.81c0-.06-.1-.11-.15-.09-3.25,1.28-6.27,3.01-8.99,5.2-.11,.09,.03,.26,.15,.2,.53-.29,1.05-.61,1.53-.98,.15-.11,1.5-1.49,1.53-1.48-.42-.15-.1,3.29,0,3.63,.02,.07,.12,.12,.18,.07,2.28-1.52,4.32-3.32,6.07-5.42,.1-.12-.06-.29-.18-.18l-2.31,2.27c-.09,.09-.88,.98-.99,.97,.09,0,.21-.84,.24-1.02,.22-1.53-.08-3.01-.77-4.38-.03-.06-.12-.08-.17-.04l-7.54,4.67-1.68,1.04c-.25,.15-.74,.58-1.05,.65-.41,.09-.14,.29-.12-.07,.04-.52,.76-1.42,1.02-1.9l1.13-2.11c.06-.12-.1-.26-.2-.15-1.97,2.21-4.2,3.97-6.86,5.26-2.16,1.04-4.37,1.93-6.34,3.32-.41,.29-3.1,2.74-3.15,2.71,.22,.13,1.45-1.13,1.75-1.26,.48-.22,.96-.25,1.47-.22,1.93,.1,2.91-.49,4.12-2.06,.08-.1-.07-.24-.17-.17l-7.28,5.18c-.45,.32-1.09,1-1.62,1.15,.28-.08,.78-.8,1.11-1.2l2.88-3.56c.1-.12-.05-.29-.18-.18l-6.22,5.52,.18,.18c1.06-1.19,1.89-2.5,2.5-3.98,.04-.1-.1-.2-.18-.14-1.78,1.31-3.67,2.38-5.66,3.34-.87,.42-1.74,.84-2.59,1.31-.45,.25-.89,.51-1.33,.78-.33,.21-1.3,1.11-1.64,1.11v.11l.19-.34c.12-.21,.25-.42,.39-.62,.23-.36,.47-.72,.72-1.06,.49-.67,1.02-1.3,1.62-1.88,1.33-1.29,2.86-2.37,4.29-3.54l-.18-.18c-.59,.62-1.2,1.22-1.84,1.79-.32,.29-.65,.56-.99,.83-.29,.23-1.12,1.06-1.54,1.15-.52,.11-.37-.25-.37-.77l-.02-1.49-.05-3.23c0-.12-.13-.15-.21-.09-3.89,3.16-7.42,6.72-10.49,10.68-.04,.05-.05,.12,0,.18,.43,.42,1.16-.16,1-.71-.36-1.23-2.95,.29-3.46,.53-4.25,1.93-8.49,3.99-12.06,7.03l.18,.18,9.68-10.37,2.34-2.5c.13-.14,1.12-1.26,.46-.65-.38,.35-.65,.89-1.01,1.28-1.21,1.3-2.73,2.27-4.31,3.05-3.52,1.72-7.4,2.54-11.18,3.46l-6.97,1.71c-2.36,.58-4.81,1.44-7.21,1.76-.87,.12-.7-.18-.53-.98,.13-.61,.26-1.21,.41-1.82,.28-1.21,.59-2.42,.93-3.62,.71-2.57,1.55-5.1,2.47-7.59,.04-.11-.09-.18-.18-.14-4.06,1.88-7.99,4.01-11.78,6.39-.96,.6-1.9,1.22-2.84,1.85-.37,.25-.74,.51-1.11,.77-.13,.09-1.13,.86-1.04,.86,.36,0,1.3-2.23,1.47-2.61,.4-.9,.71-1.84,.94-2.8,.03-.14-.16-.22-.23-.1-1.37,2.37-1.91,5.01-1.38,7.71,.02,.09,.12,.11,.18,.07,.86-.4,1.37-1.14,1.19-2.1-.02-.09-.15-.12-.21-.06-.55,.65-.75,1.45-.42,2.27,.28,.7,1.06,1.47,1.81,1.19,.58-.21,1.3-.96,1.75-1.36,.63-.57,1.22-1.18,1.76-1.84,.94-1.15,1.68-2.42,2.25-3.8,.05-.13-.13-.19-.21-.12-1.82,1.56-2.75,3.92-1.99,6.26,.02,.07,.11,.12,.18,.07,2.2-1.37,3.99-3.22,5.14-5.55,.07-.14-.13-.26-.22-.13l-5.64,8.42c-.07,.11,.07,.23,.17,.17,3.6-2.01,6.84-4.55,9.59-7.63,.11-.12-.06-.29-.18-.18-2.09,1.95-3.74,4.25-4.81,6.91-.05,.11,.1,.18,.18,.14,2.37-1.08,4.62-2.4,6.68-4.01,.08-.06,.59-.56,.66-.53-.22-.06-.39,.41-.5,.58l-1.14,1.81-2.52,4.01c-.06,.1,.04,.2,.14,.18,1.64-.26,3.19-.98,4.33-2.22,1.57-1.7,3.23-3.27,4.91-4.85,.46-.43,2.14-1.58,2.07-2.17,.02,.16-.46,.85-.54,1.03-.18,.46-.31,.93-.38,1.42-.21,1.5,.18,2.95,1.06,4.17,.05,.07,.13,.08,.2,.03l2.91-2.29-.18-.18c-.65,.56-1.26,.66-1.97,1.01-.52,.26-.74,.8-.96,1.31-.06,.14,.15,.27,.22,.13,2.37-5.05,5.07-9.93,7.44-14.98,.06-.13-.08-.24-.2-.15-3.15,2.53-6.37,4.98-9.45,7.59-.47,.4-.45,.49-.15-.08,.21-.41,.39-.85,.57-1.27,.31-.72,.59-1.44,.86-2.18,.67-1.86,1.19-3.77,1.57-5.71,.02-.1-.08-.2-.18-.14l-3.5,2.01c-.08,.05-1.87,1.02-1.86,1.06-.07-.18,.78-1.36,.86-1.5l4.3-7.43c.07-.13-.09-.24-.2-.15l-5.79,4.88c-.42,.36-.93,.69-1.31,1.1-.77,.85-.05-.01,.13-.36,.46-.92,.75-1.88,.91-2.9,.02-.12-.11-.22-.21-.12l-4.23,4.25c-.22,.23-1.04,.8-1.06,1.06-.03,.37,.56-.84,.53-.78l1.37-2.56c.06-.1-.06-.24-.17-.17-6.51,4.36-11.92,10.32-15.23,17.45-.05,.1,.06,.25,.17,.17,3.52-2.33,6.53-5.3,8.81-8.86,.08-.13-.09-.24-.2-.15-2.49,2.13-4.51,4.69-5.89,7.67-.06,.13,.08,.24,.2,.15l12.1-10.05-.18-.18c-2.51,2.33-4.65,4.98-6.34,7.95-.07,.13,.09,.24,.2,.15,5.07-4.4,9.77-9.19,14.06-14.35,.1-.12-.05-.28-.18-.18-4.7,3.97-8.63,8.75-11.46,14.22-.06,.11,.06,.24,.17,.17,3.32-1.98,6.54-4.13,9.62-6.48,1.38-1.06,2.74-2.15,4.06-3.27-.03,.03,.96-.74,.52-.64-.25,.06-.71,.93-.9,1.18l-2.1,2.76c-.09,.12,.1,.24,.2,.15,2.16-1.91,4.08-4.04,5.72-6.42,.07-.1-.07-.24-.17-.17-4.09,2.97-7.59,6.64-10.24,10.95-.07,.12,.1,.26,.2,.15l7.26-8.05c.09-.1-.03-.29-.15-.2-3.51,2.67-6.41,6.03-8.35,10.01-.06,.11,.06,.23,.17,.17,6.14-2.97,11.74-6.94,16.49-11.84l-.18-.18-10,11.37c-.11,.12,.06,.29,.18,.18,5.26-4.97,10.22-10.25,14.82-15.84,.1-.12-.06-.29-.18-.18-2.59,2.42-4.58,5.35-5.71,8.72-.03,.1,.09,.2,.18,.14,4.56-3.03,8.64-6.71,12.04-11,.08-.1-.03-.29-.15-.2-5.63,4.33-10.9,9.09-15.74,14.27-.11,.12,.06,.29,.18,.18l13.65-13.03c.12-.11-.05-.27-.18-.18-7.07,5.65-13.56,11.98-19.34,18.95-.09,.1,.02,.27,.15,.2,8.81-5.17,16.89-11.51,23.93-18.91,.11-.12-.05-.28-.18-.18-6.59,5.52-12.42,11.89-17.24,19.01-.09,.13,.09,.23,.2,.15,6.96-5.51,13.54-11.49,19.67-17.92,.11-.12-.06-.29-.18-.18-5.5,5.27-10.69,10.84-15.55,16.71-.08,.1,.03,.29,.15,.2l5.46-4.19,2.73-2.1,1.17-.9c.14-.11,1.2-1.05,.54-.7-.72,.39-1.37,1.24-1.93,1.84s-1.08,1.23-1.56,1.89c-1.02,1.39-1.85,2.89-2.5,4.48-.04,.1,.1,.2,.18,.14,5.16-3.75,10.06-7.85,14.65-12.28l-.18-.18c-3.19,3.72-5.83,7.86-7.77,12.36-.05,.13,.08,.25,.2,.15l14.93-13.17,3.69-3.25c.3-.26,.66-.52,.92-.81,.14-.16,.52-.66,.15-.21-.48,.61-.86,1.34-1.27,2-1.69,2.74-3.21,5.57-4.6,8.47-.06,.13,.09,.25,.2,.15l6.45-5.52c1.04-.89,2.11-1.77,3.13-2.68,.72-.64,.17,.11-.01,.54l-.9,2.16c-.05,.12,.13,.2,.21,.12,5.32-5.05,10.08-10.64,14.15-16.74,.08-.13-.09-.24-.2-.15-4.91,4.01-9.65,8.22-14.21,12.63-.12,.11,.06,.28,.18,.18,2.85-2.61,5.15-5.71,6.68-9.26,.06-.15-.12-.26-.22-.13-.54,.75-1.35,1.62-2.25,1.95-.75,.27-.29-.1-.04-.59,.13-.26,.26-.53,.37-.8,.67-1.55,1-3.18,1.02-4.87,0-.09-.11-.16-.19-.11-3.18,2.18-6.24,4.53-9.15,7.07-.72,.63-1.52,1.25-2.16,1.95-.46,.5-.31,.37-.07-.1s.45-1.02,.67-1.52l2.59-5.87c.05-.11-.05-.24-.17-.17-4.83,2.74-9,6.5-12.06,11.15-.08,.13,.09,.23,.2,.15,3.16-2.52,6.1-5.28,8.79-8.28,.11-.12-.06-.28-.18-.18-6.69,5.93-12.43,12.87-16.82,20.66-.07,.12,.09,.25,.2,.15,5.99-5.84,11.34-12.3,15.89-19.32,.08-.13-.09-.23-.2-.15-5.88,4.58-10.84,10.25-14.42,16.8-.06,.1,.06,.25,.17,.17,7.14-5.22,13.52-11.4,18.85-18.45,.08-.11-.11-.26-.2-.15-3.87,4.81-7.03,10.14-9.31,15.88-.05,.12,.13,.2,.21,.12,4-3.92,7.56-8.26,10.58-12.98,.08-.12-.1-.25-.2-.15-4.14,4.06-7.6,8.74-10.14,13.97-.06,.13,.09,.24,.2,.15,4.69-3.98,8.83-8.55,12.26-13.65,.07-.1-.07-.25-.17-.17-4.05,3.11-6.94,7.6-7.5,12.73-.01,.11,.14,.15,.21,.09l9.93-9.14-.18-.18c-3.37,3.11-5.74,7.18-6.38,11.76-.02,.12,.11,.21,.21,.12,5.78-5.01,11.07-10.55,15.78-16.58,.1-.12-.07-.3-.18-.18-2.05,2.32-3.79,4.87-5.15,7.66-.06,.12,.09,.26,.2,.15,3.84-3.78,7.31-7.9,10.38-12.33,.08-.12-.1-.26-.2-.15-3.54,4.02-6.69,8.35-9.37,12.99-.08,.14,.13,.26,.22,.13l5.77-8.36c.09-.12-.09-.24-.2-.15-3.01,2.55-5.29,5.81-6.45,9.59-.04,.13,.12,.2,.21,.12l11.08-9.59-.18-.18c-3.21,2.81-6.05,5.98-8.46,9.51-.08,.12,.09,.24,.2,.15l4.97-4.24-.18-.18c-1.1,1-1.72,2.25-1.61,3.75,0,.11,.13,.16,.21,.09l8.39-7.49,2.01-1.79c.79-.7,.45-.75,.13,.11-.43,1.14-.34,2.31,.18,3.4,.04,.08,.14,.07,.2,.03l7.12-5.76c.11-.09-.04-.28-.15-.2l-6.11,4.61-1.38,1.04c-.27,.2-1.16,1.19-.54,.25,.68-1.04,1.26-2.16,1.88-3.24,.08-.13-.09-.24-.2-.15l-9.95,7.88,.18,.18,4.38-4.92c.1-.11-.02-.25-.15-.2-6.76,3.04-13.25,6.69-19.32,10.96-.73,.51-1.52,1-2.19,1.58-.49,.43-.36,.41,.04-.03,.33-.35,.62-.77,.91-1.15l3.66-4.6,7.62-9.59c.08-.1-.02-.28-.15-.2-6.54,4.11-12.27,9.42-16.67,15.78-.08,.12,.1,.25,.2,.15,2.65-2.74,4.95-5.77,6.84-9.09,.06-.11-.06-.24-.17-.17-7.76,4.7-15.06,10.11-21.77,16.22l.18,.18c4.87-5.36,9.44-10.97,13.7-16.82,.08-.11-.07-.23-.17-.17-4.83,2.77-9.39,6.01-13.55,9.71-1.01,.9-2.16,1.81-3.03,2.85-.7,.84,.3-.35,.51-.69l1.33-2.08,5.17-8.11c.07-.11-.07-.24-.17-.17-5.15,3.17-9.88,6.96-14.07,11.32-.11,.12,.06,.29,.18,.18,2.45-2.3,4.56-4.9,6.26-7.81,.06-.11-.06-.24-.17-.17-4.06,2.55-7.82,5.5-11.23,8.87l.18,.18c3.2-3.75,6.17-7.69,8.89-11.81,.07-.11-.07-.23-.17-.17-5.72,3.06-10.65,7.47-14.09,12.99-.07,.12,.1,.25,.2,.15,1.21-1.24,2.11-2.66,2.65-4.31,.03-.08-.07-.19-.15-.15-5.13,2.13-9.8,5.19-13.73,9.12l.18,.18c2.02-2.11,3.41-4.67,3.85-7.57,.02-.11-.08-.19-.18-.14-4.7,2-9.12,4.57-13.16,7.7-.13,.1,.05,.27,.18,.18h0Z"/><line class="f" x1="17.81" y1="396.14" x2="29.38" y2="384.28"/><line class="f" x1="2.65" y1="413.08" x2="11.08" y2="407.46"/><line class="c" x1="10.18" y1="418.72" x2="23.59" y2="407.46"/><line class="f" x1="6.87" y1="371.29" x2="27.5" y2="358.33"/><line class="f" x1="10.18" y1="384.28" x2="29.38" y2="371.29"/><line class="f" x1="38.51" y1="358.33" x2="49.52" y2="358.33"/><line class="f" x1="11.08" y1="354.35" x2="38.51" y2="349.97"/><line class="f" x1="49.52" y1="349.27" x2="57.34" y2="343.43"/><line class="f" x1="6.87" y1="324.05" x2="29.38" y2="321.78"/><line class="f" x1="6.87" y1="313.74" x2="24.8" y2="310.34"/><line class="f" x1="6.87" y1="306.52" x2="20.91" y2="301.55"/><line class="f" x1="35.22" y1="311.15" x2="57.34" y2="311.15"/><line class="f" x1="35.22" y1="322.82" x2="49.52" y2="316.23"/><line class="f" x1="62.89" y1="312.97" x2="81.52" y2="304.69"/><line class="f" x1="49.52" y1="301.55" x2="76.44" y2="300.56"/><line class="f" x1="31.83" y1="304.04" x2="40.02" y2="300.56"/><line class="f" x1="774.91" y1="371.29" x2="780.84" y2="354.35"/><line class="f" x1="786.77" y1="390.21" x2="792.7" y2="371.29"/><line class="f" x1="777.87" y1="377.88" x2="784.96" y2="371.29"/><line class="f" x1="763.53" y1="360.56" x2="774.91" y2="350.77"/><line class="f" x1="777.87" y1="343.99" x2="789.73" y2="342.49"/><line class="f" x1="784.96" y1="354.35" x2="795.12" y2="354.35"/><line class="f" x1="784.96" y1="364.7" x2="795.12" y2="362.82"/><line class="f" x1="790.04" y1="401.22" x2="795.12" y2="392.94"/><line class="f" x1="752.21" y1="340.23" x2="761.53" y2="331.2"/><line class="f" x1="773.39" y1="327.24" x2="784.96" y2="321.97"/><line class="f" x1="781.41" y1="335.71" x2="795.12" y2="324.61"/><line class="f" x1="732.63" y1="330.16" x2="739.26" y2="327.24"/><line class="f" x1="739.26" y1="340.23" x2="748.16" y2="333.08"/><line class="f" x1="748.16" y1="349.27" x2="756.87" y2="342.49"/><polyline class="f" points="754.85 358.33 760.57 349.27 774.91 335.71"/><line class="f" x1="777.87" y1="390.21" x2="783.8" y2="380.75"/><line class="f" x1="726.23" y1="313.97" x2="739.26" y2="311.62"/><line class="f" x1="730.37" y1="321.03" x2="739.26" y2="317.36"/><line class="f" x1="784.96" y1="305.03" x2="795.12" y2="305.83"/><line class="f" x1="792.58" y1="313.97" x2="798.62" y2="313.97"/><path d="M394.27,212.88c-.16-1.72-.2-3.45-.07-5.18,.07-.93,.2-1.85,.33-2.78,.1-.8,0-.49,.18-.09,.22,.5,.28,1.18,.36,1.71,.13,.86,.18,1.72,.16,2.59,0,.35,.05,.99-.09,1.31-.2,.45,.1,.55-.34,.05-.59-.68-.99-1.91-1.33-2.72s-.62-1.64-.86-2.48c-.2-.7-.37-1.41-.51-2.13-.15-.79-.55-1.99-.36-2.79,.08-.32-.25-.44,.21,.07,.31,.34,.58,1.03,.73,1.42,.12,.32,.22,.64,.31,.97,.07,.29,.53,1.43,.04,.52-1.66-3.04-2.54-6.7-2.88-10.13-.03-.27-.33-2.57-.14-2.66s1.03,1.32,1.19,1.58c.88,1.43,1.54,2.99,1.95,4.61,.21,.84,.21,1.74,.43,2.56,.29,1.06-.22-.69-.3-.93-.55-1.72-.97-3.48-1.26-5.26-.26-1.62-.43-3.26-.48-4.9-.03-.9-.02-1.81,.02-2.71,.04-.82-.06-1.93,.21-2.7l.07-.45c.18,.37,.34,.76,.47,1.15,.09,.27,.18,.54,.26,.81,.27,.94,.42,1.92,.46,2.9,.04,.84,0,1.68-.14,2.51-.06,.4-.11,.87-.26,1.25-.18,.46-.05,.58-.42,.06-.89-1.27-1.4-3.09-1.81-4.58-.44-1.58-.71-3.22-.81-4.86s-.03-3.29,.22-4.92c.1-.68,.24-1.36,.41-2.03,.02-.09,.27-1.2,.33-1.2,.28,0,.56,.85,.67,1.1,.67,1.49,1.05,3.11,1.13,4.74,.05,.95,0,1.91-.16,2.86-.04,.25-.07,.59-.16,.81-.32,.81-.39-.02-.62-.63-1.1-2.92-1.07-6.24,.05-9.14,.14-.36,.57-1.84,1.11-1.81,.51,.02,1.32,1.56,1.53,1.95,.73,1.36,1.07,2.92,.91,4.46,0-.06-.39,1.91,.07,.63,.13-.36,.14-.83,.23-1.21,.15-.67,.33-1.33,.55-1.98,.54-1.61,1.3-3.15,2.25-4.56,.19-.28,.39-.56,.59-.84,.63-.83,.51-.77,.74-.08,.28,.83,.31,1.86,.38,2.73,.17,1.85,.15,3.72-.05,5.57-.1,.91-.25,1.82-.44,2.72-.02,.1-.33,.95-.12,.96-.02,0-.04-.76-.04-.87-.04-1.88,.28-3.77,.93-5.53,.17-.46,.32-1.25,.68-1.57,.34-.3,.21-1.09,.37,.36,.09,.8,.09,1.6,.03,2.4-.16,1.98-.76,3.92-1.77,5.64-.17,.29-.37,.56-.54,.84-.43,.72-.27,.41-.06-.21,.28-.84,.64-1.64,1.07-2.41,.87-1.54,2.04-2.92,3.42-4.03,.1-.08,.65-.56,.9-.66,.18-.27,.32-.3,.41-.08-.05,.42-.11,.85-.17,1.27-.13,.86-.29,1.73-.48,2.58-.4,1.85-.92,3.68-1.56,5.46s-1.39,3.51-2.25,5.19c-.4,.78-.82,1.54-1.27,2.3-.1,.16-.51,1.07-.69,1.12-.65,.17-.65-1.3-.63-1.73h-.25c.18,2.7,.04,5.4-.44,8.06-.22,1.18-.5,2.36-.85,3.51-.17,.58-.36,1.15-.57,1.71-.13,.35-.94,1.84-.82,2.05-.15-.28-.02-1.39-.02-1.72,0-.65-.01-1.3,0-1.96,0-1.39,.04-2.77,.1-4.16,.12-2.77,.35-5.53,.68-8.29,.17-1.45,.38-2.89,.61-4.33,.1-.64,.21-1.29,.33-1.93,.13-.74,.04-1.53,.14-.27s.14,2.58,.11,3.86c0,.35-.2,4.21-.26,4.21-.35,0-.63-2.89-.64-3.13-.06-1.19,.08-2.39,.39-3.54,.28-1.03,.71-2.03,1.28-2.94,.31-.5,.67-.98,1.06-1.42,.08-.09,.43-.52,.5-.52,.28,0,.54,.89,.6,1.07,.38,1.2,.56,2.46,.52,3.72,0,.16-.2,1.87-.2,1.87-.17-.06-.37-1.32-.41-1.54-.5-2.61-.17-5.38,.98-7.79,.09-.2,.43-1.09,.64-1.08,.12,0,.21,1.5,.22,1.78,.06,1.15-.05,2.3-.31,3.42-.49,2.17-1.54,4.24-3.06,5.88-.24,.26-.67,.91-1.07,.73-.28-.13-.6-1.02-.73-1.29-.57-1.21-.93-2.52-1.06-3.85-.22-2.25,.19-4.58,1.24-6.59,.1-.19,.53-1.1,.72-1.07,.2,.04,.36,1.58,.38,1.72,.19,1.41,.18,2.85-.05,4.26-.08,.49-.43,2.87-.93,2.91-.17,.01-.69-1.7-.76-1.93-.24-.8-.42-1.62-.51-2.45-.04-.34,.06-3.8,.09-3.79,.36,.17,.54,2.11,.56,2.39,.07,.69,.05,1.37-.03,2.06-.02,.15-.28,2.01-.47,2.01-.06,0-.21-1.51-.23-1.73-.09-1.19-.01-2.41,.2-3.59,.45-2.48,1.52-4.86,3.13-6.81,.35-.42,.72-.82,1.11-1.2,.55-.53,.71-.8,1,0,.6,1.63,.48,3.74,.24,5.43-.02,.16,.22,.23,.24,.07,.32-2.19,.16-4.33-.49-6.45-.03-.1-.14-.11-.21-.06-4.33,3.54-6.34,9.35-5.14,14.8,.03,.13,.2,.11,.24,0,.93-2.41,.91-4.97-.07-7.36-.04-.1-.22-.14-.24,0-.58,3.14-.13,6.28,1.31,9.12,.05,.11,.19,.06,.23-.03,1.29-3.14,1.49-6.54,.58-9.81-.03-.11-.17-.11-.23-.03-2.88,4.04-2.92,9.61-.12,13.71,.05,.07,.13,.08,.2,.03,3.59-3.13,5.21-8.03,4.19-12.68-.02-.11-.17-.12-.23-.03-2.15,3.39-2.61,7.55-1.25,11.33,.04,.11,.21,.13,.24,0,.57-2.57,.31-5.13-.78-7.53-.03-.08-.14-.08-.2-.03-3.35,3.13-4.47,8.11-2.79,12.38,.04,.1,.22,.14,.24,0,.43-3.22,.49-6.45,.15-9.68-.01-.13-.22-.18-.25-.03-1.54,8.03-2.19,16.19-1.93,24.36,0,.11,.18,.18,.23,.06,2.28-4.98,3.28-10.4,2.92-15.87-.01-.16-.25-.16-.25,0-.03,.85,.17,1.53,.65,2.23,.05,.08,.16,.08,.22,0,3.66-5.69,5.95-12.12,6.73-18.84,.01-.1-.11-.15-.19-.11-3.23,1.97-5.53,5.09-6.46,8.76-.03,.11,.13,.22,.21,.12,2.5-3.13,3.49-7.13,2.75-11.06-.02-.11-.18-.12-.23-.03-1.6,2.86-2.28,6.05-1.97,9.31,.01,.13,.21,.18,.25,.03,1.13-4.42,1.22-8.97,.24-13.43-.02-.09-.15-.13-.21-.06-2.53,3-4.09,6.58-4.56,10.47-.02,.14,.21,.16,.25,.03,.85-3.01-.12-6.23-2.5-8.26-.06-.05-.15-.05-.2,.03-2.36,3.92-2.53,8.8-.45,12.87,.05,.1,.2,.07,.23-.03,1.05-3.68,.55-7.57-1.4-10.87-.06-.1-.2-.07-.23,.03-2.01,6.27-1.3,13.15,1.95,18.88,.05,.1,.2,.07,.23-.03,1.07-3.34,.8-6.87-.76-10.01-.04-.09-.21-.08-.23,.03-.83,6.18-.16,12.42,1.99,18.27,.05,.12,.25,.12,.25-.03-.17-3.73-1.52-7.22-3.91-10.1-.07-.09-.21-.01-.21,.09,0,4.94,1.17,9.76,3.46,14.15,.06,.11,.24,.06,.23-.06-.15-1.7-.72-3.2-1.77-4.56-.07-.09-.24-.07-.23,.06,.21,4.14,1.42,8.11,3.58,11.65,.05,.08,.21,.08,.23-.03,.4-2.51,.21-5-.57-7.42-.03-.11-.22-.13-.24,0-.56,2.96-.7,5.95-.43,8.95,.01,.16,.26,.16,.25,0h0Z"/><path class="v" d="M115.97,413.11l9.04-19.8s45.18-2.82,60.14-9.04c0,0,32.38-22.02,112.89-18.64l63.72-.35,3.44,6.57-51.58,4.52-38.02,12.83s-59.48-2.35-75.11,9.64l-42.06,8.63-10.83,2.79-31.62,2.86Z"/><polygon class="t" points="637.57 397.08 711.17 413.11 695.36 424.37 683.5 424.94 684.06 413.11 637.57 397.08"/><polygon class="t" points="409.71 363.76 508.25 347.02 498.84 339.48 409.71 358.33 409.71 363.76"/><polygon class="v" points="563.54 420.78 596.77 404.61 597.24 394.49 592.72 394.49 592.72 388.44 584.91 381.66 576.34 381.66 569.34 387.31 566.18 394.49 559.5 397.47 557.14 402.37 557.14 407.07 538.41 407.07 535.78 413.28 540.77 418.4 531.64 418.4 563.54 420.78"/><polyline class="d" points="587.46 339.03 609.57 348.44 621.24 365.43 645.81 377.62"/><polyline class="d" points="654.37 358.21 679.3 370.49 706.4 390.96"/><line class="d" x1="707.11" y1="364.06" x2="764.79" y2="391.69"/></svg>